<svg width="393" height="321" viewBox="0 0 393 321" fill="none" xmlns="http://www.w3.org/2000/svg">
<path d="M6.78048 268.265H48.3752V276.302H25.9551L25.922 290.375H43.0765V298.412H25.922V312.38H48.3752V320.416H6.78048V268.265ZM67.1855 276.267H53.144V268.23H100.368V276.267H86.327V320.416H67.1855V276.267ZM107.886 268.265H136.267C139.932 268.265 143.139 268.675 145.888 269.494C148.636 270.312 150.932 271.459 152.776 272.933C154.619 274.407 156.005 276.173 156.932 278.232C157.859 280.291 158.323 282.561 158.323 285.041C158.323 288.106 157.638 290.826 156.27 293.2C154.901 295.575 152.87 297.464 150.176 298.868L160.509 320.452H138.883L131.068 301.5H127.028V320.416H107.886V268.265ZM128.187 295.148C129.754 295.148 131.156 294.914 132.392 294.446C133.629 293.978 134.677 293.317 135.539 292.463C136.4 291.609 137.062 290.592 137.526 289.41C137.989 288.228 138.221 286.936 138.221 285.532C138.221 284.128 137.989 282.836 137.526 281.654C137.062 280.473 136.4 279.455 135.539 278.601C134.677 277.747 133.629 277.086 132.392 276.618C131.156 276.15 129.754 275.916 128.187 275.916H127.061L127.028 295.148H128.187ZM169.98 268.265H211.575V276.302H189.155L189.121 290.375H206.276V298.412H189.121V312.38H211.575V320.416H169.98V268.265ZM221.741 268.265H233.73L264.959 296.061L264.992 268.265H272.278V320.416H260.289L229.027 292.727V320.416H221.741V268.265ZM285.193 268.265H305.428C311.124 268.265 316.058 268.833 320.231 269.967C324.404 271.102 327.859 272.769 330.596 274.968C333.334 277.168 335.365 279.87 336.69 283.075C338.015 286.281 338.677 289.954 338.677 294.095C338.677 297.792 338.015 301.237 336.69 304.431C335.365 307.624 333.334 310.409 330.596 312.783C327.859 315.158 324.404 317.024 320.231 318.381C316.058 319.738 311.124 320.416 305.428 320.416H285.193V268.265ZM304.335 312.766C306.543 312.766 308.53 312.403 310.296 311.678C312.062 310.953 313.558 309.829 314.783 308.309C316.008 306.788 316.947 304.852 317.598 302.5C318.249 300.149 318.575 297.336 318.575 294.06C318.575 290.808 318.244 288.035 317.581 285.743C316.919 283.45 315.97 281.572 314.733 280.11C313.497 278.648 312.001 277.583 310.246 276.916C308.491 276.249 306.531 275.916 304.368 275.916L304.335 312.766ZM367.356 275.916H347.685V268.265H392.657L370.336 312.696H390.736V320.416H344.274L367.356 275.916Z" fill="#E5E5E5"/>
<mask id="mask0_1_3" style="mask-type:luminance" maskUnits="userSpaceOnUse" x="0" y="0" width="280" height="257">
<path d="M0.488289 0.548431H279.105V256.251H0.488289V0.548431Z" fill="white"/>
</mask>
<g mask="url(#mask0_1_3)">
<mask id="mask1_1_3" style="mask-type:luminance" maskUnits="userSpaceOnUse" x="0" y="0" width="280" height="257">
<path d="M0.488289 0.548431H279.105V256.251H0.488289V0.548431Z" fill="white"/>
</mask>
<g mask="url(#mask1_1_3)">
<path d="M209.452 256.251L278.453 129.607L279.111 128.401L209.459 0.548431H70.1486L1.14781 127.194L0.489677 128.401L70.1438 256.251H209.452ZM20.3979 155.295L111.111 251.426H72.7716L20.3979 155.295ZM202.601 24.2398L208.515 8.48214L218.555 26.9181L202.601 24.2398ZM219.474 31.9591L241.687 180.584L119.074 246.782L200.876 28.8298L219.474 31.9591ZM197.991 23.4664L90.2035 5.37486H204.78L197.991 23.4664ZM196.266 28.0631L113.89 247.547L14.7615 142.496L79.2271 8.41967L196.266 28.0631ZM206.823 251.426H120.518L242.791 185.397L206.823 251.426ZM246.109 179.317L225.134 38.991L273.846 128.403L246.109 179.317ZM72.7716 5.37655H75.5794L11.4199 138.818L5.74681 128.403L72.7716 5.37655Z" fill="white"/>
</g>
</g>
</svg>
