<svg xmlns="http://www.w3.org/2000/svg" version="1.1" xmlns:xlink="http://www.w3.org/1999/xlink" xmlns:svgjs="http://svgjs.dev/svgjs" viewBox="0 0 10.239864806303933 8.20178834438808"><g transform="matrix(1,0,0,1,0.7627546687769664,6.349189925611114)"><g><path d=" M 0.13916015625 0.000732421875 L 1.05908203125 0.000732421875 L 1.05908203125 0.16845703125 L 0.563232421875 0.16845703125 L 0.5625 0.462158203125 L 0.94189453125 0.462158203125 L 0.94189453125 0.6298828125 L 0.5625 0.6298828125 L 0.5625 0.92138671875 L 1.05908203125 0.92138671875 L 1.05908203125 1.089111328125 L 0.13916015625 1.089111328125 L 0.13916015625 0.000732421875 M 1.47509765625 0.167724609375 L 1.16455078125 0.167724609375 L 1.16455078125 0 L 2.208984375 0 L 2.208984375 0.167724609375 L 1.8984375 0.167724609375 L 1.8984375 1.089111328125 L 1.47509765625 1.089111328125 L 1.47509765625 0.167724609375 M 2.375244140625 0.000732421875 L 3.0029296875 0.000732421875 Q 3.12451171875 0.000732421875 3.2156982421875 0.0263671875 Q 3.306884765625 0.052001953125 3.3680419921875 0.09814453125 Q 3.42919921875 0.144287109375 3.4599609375 0.208740234375 Q 3.49072265625 0.273193359375 3.49072265625 0.350830078125 Q 3.49072265625 0.44677734375 3.4453125 0.5211181640625 Q 3.39990234375 0.595458984375 3.310546875 0.639404296875 L 3.5390625 1.08984375 L 3.060791015625 1.08984375 L 2.887939453125 0.6943359375 L 2.798583984375 0.6943359375 L 2.798583984375 1.089111328125 L 2.375244140625 1.089111328125 L 2.375244140625 0.000732421875 M 2.82421875 0.561767578125 Q 2.876220703125 0.561767578125 2.917236328125 0.547119140625 Q 2.958251953125 0.532470703125 2.98681640625 0.5057373046875 Q 3.015380859375 0.47900390625 3.03076171875 0.4420166015625 Q 3.046142578125 0.405029296875 3.046142578125 0.361083984375 Q 3.046142578125 0.317138671875 3.03076171875 0.2801513671875 Q 3.015380859375 0.2431640625 2.98681640625 0.2164306640625 Q 2.958251953125 0.189697265625 2.917236328125 0.175048828125 Q 2.876220703125 0.160400390625 2.82421875 0.160400390625 L 2.79931640625 0.160400390625 L 2.798583984375 0.561767578125 L 2.82421875 0.561767578125 M 3.74853515625 0.000732421875 L 4.66845703125 0.000732421875 L 4.66845703125 0.16845703125 L 4.172607421875 0.16845703125 L 4.171875 0.462158203125 L 4.55126953125 0.462158203125 L 4.55126953125 0.6298828125 L 4.171875 0.6298828125 L 4.171875 0.92138671875 L 4.66845703125 0.92138671875 L 4.66845703125 1.089111328125 L 3.74853515625 1.089111328125 L 3.74853515625 0.000732421875 M 4.893310546875 0.000732421875 L 5.158447265625 0.000732421875 L 5.84912109375 0.580810546875 L 5.849853515625 0.000732421875 L 6.010986328125 0.000732421875 L 6.010986328125 1.089111328125 L 5.745849609375 1.089111328125 L 5.054443359375 0.51123046875 L 5.054443359375 1.089111328125 L 4.893310546875 1.089111328125 L 4.893310546875 0.000732421875 M 6.296630859375 0.000732421875 L 6.744140625 0.000732421875 Q 6.93310546875 0.000732421875 7.071533203125 0.0362548828125 Q 7.2099609375 0.07177734375 7.30078125 0.140625 Q 7.3916015625 0.20947265625 7.435546875 0.309814453125 Q 7.4794921875 0.41015625 7.4794921875 0.539794921875 Q 7.4794921875 0.655517578125 7.435546875 0.7554931640625 Q 7.3916015625 0.85546875 7.30078125 0.9298095703125 Q 7.2099609375 1.004150390625 7.071533203125 1.046630859375 Q 6.93310546875 1.089111328125 6.744140625 1.089111328125 L 6.296630859375 1.089111328125 L 6.296630859375 0.000732421875 M 6.719970703125 0.929443359375 Q 6.793212890625 0.929443359375 6.851806640625 0.90673828125 Q 6.910400390625 0.884033203125 6.9510498046875 0.83642578125 Q 6.99169921875 0.788818359375 7.0133056640625 0.7152099609375 Q 7.034912109375 0.6416015625 7.034912109375 0.5390625 Q 7.034912109375 0.437255859375 7.012939453125 0.365478515625 Q 6.990966796875 0.293701171875 6.949951171875 0.2479248046875 Q 6.908935546875 0.2021484375 6.8507080078125 0.1812744140625 Q 6.79248046875 0.160400390625 6.720703125 0.160400390625 L 6.719970703125 0.929443359375 M 8.11376953125 0.160400390625 L 7.6787109375 0.160400390625 L 7.6787109375 0.000732421875 L 8.67333984375 0.000732421875 L 8.1796875 0.927978515625 L 8.630859375 0.927978515625 L 8.630859375 1.089111328125 L 7.603271484375 1.089111328125 L 8.11376953125 0.160400390625" fill="#173054" fill-rule="nonzero"></path></g><g></g><g clip-path="url(&quot;#SvgjsClipPath1001&quot;)"><g clip-path="url(&quot;#SvgjsClipPath100038717863-75e6-4dcf-a10e-bd925275a760&quot;)"><path d=" M 4.621520127753482 -0.24999999999998845 L 6.147565239372591 -2.893018500130521 L 6.162120819767492 -2.918182384880995 L 4.6216611018977565 -5.58643525683413 L 1.5406359355500923 -5.58643525683413 L 0.014590823930982506 -2.943381513167533 L 0.00003524353609935588 -2.918182384880977 L 1.5405302049418994 -0.2499999999999707 Z M 0.44033273959744745 -2.35692907304419 L 2.4465710301036365 -0.3506907825380008 L 1.5986467959132389 -0.3506907825380008 Z M 4.4700081662095865 -5.092003689376764 L 4.600796928547201 -5.420861124400287 L 4.82283120575736 -5.036107441177512 Z M 4.8431667260669515 -4.930905486023178 L 5.334426375278458 -1.8291571204692154 L 2.622682979820977 -0.4476105067170595 L 4.431839416651077 -4.996211758351816 Z M 4.36804861637324 -5.108145228894594 L 1.9841758369294462 -5.485709230760088 L 4.518186080010592 -5.485709230760088 Z M 4.329879866814731 -5.012212323725372 L 2.508035757001175 -0.4316451848795513 L 0.3156763525351659 -2.6240398328816243 L 1.741418360512971 -5.422165135234667 Z M 4.56336829324606 -0.3506907825380008 L 2.6546136234959596 -0.3506907825380008 L 5.358850145771563 -1.7287130426836534 Z M 5.432227187859107 -1.8555897725180404 L 4.968351766170198 -4.784151401848037 L 6.045676176608374 -2.9181471413449307 Z M 1.5986467959132389 -5.485673987223989 L 1.6607459064599528 -5.485673987223989 L 0.24177065740663906 -2.7008002544314142 L 0.11630366901486043 -2.9181471413449307 Z" fill="#225777" transform="matrix(1,0,0,1,0,0)" fill-rule="nonzero"></path></g></g></g><defs><clipPath id="SvgjsClipPath1001"><path d=" M 0 -5.5864352568341475 h 6.1619798456232004 v 5.3364352568341475 h -6.1619798456232004 Z"></path></clipPath><clipPath id="SvgjsClipPath100038717863-75e6-4dcf-a10e-bd925275a760"><path d=" M 0 -5.5864352568341475 L 6.1619798456232004 -5.5864352568341475 L 6.1619798456232004 -0.25 L 0 -0.25 Z"></path></clipPath></defs></svg>